#!OML:ASF F:\VICON\USERDATA\INSTALL\rory3\rory3.ASF
:FULLY-SPECIFIED
:DEGREES
1878
root -0.194001 14.9531 -0.811938 5.08544 0.928872 4.60337
lowerback 19.7642 -0.821876 0.900838
upperback -5.9458 -0.711045 0.93304
thorax -18.2113 -0.33211 0.831389
lowerneck -22.6181 2.164 -1.53893
upperneck 29.4049 3.52771 0.694953
head 13.7159 1.4556 1.1805
rclavicle 2.3966e-014 -1.35174e-014
rhumerus -84.5459 40.0056 -99.3494
rradius 128.255
rwrist -43.4517
rhand 41.5414 9.50052
rfingers 7.12502
rthumb 63.6599 0.239417
lclavicle 2.3966e-014 -1.35174e-014
lhumerus -86.0008 -40.7532 101.062
lradius 122.527
lwrist 84.4608
lhand 26.4189 43.0058
lfingers 7.12502
lthumb 50.4606 63.9833
rfemur -31.0428 -0.515719 12.6459
rtibia 56.6217
rfoot -24.4335 -9.16444
rtoes -18.2855
lfemur -27.9322 8.80312 -20.3943
ltibia 48.427
lfoot -17.6121 -8.6068
ltoes -7.62699
1879
root -0.188531 14.9462 -0.827019 5.11975 0.982362 4.58279
lowerback 19.9154 -0.792055 0.804992
upperback -5.97215 -0.696086 0.921666
thorax -18.3404 -0.314726 0.870865
lowerneck -22.2363 2.07501 -1.75823
upperneck 29.276 3.434 0.80808
head 13.5746 1.41086 1.23656
rclavicle 1.80149e-014 -6.36111e-015
rhumerus -84.5869 39.9518 -99.3353
rradius 128.266
rwrist -43.4272
rhand 41.7245 9.34732
rfingers 7.12502
rthumb 63.8084 0.303583
lclavicle 1.80149e-014 -6.36111e-015
lhumerus -86.0019 -40.5796 101.018
lradius 122.49
lwrist 84.3245
lhand 26.486 43.0966
lfingers 7.12502
lthumb 50.5219 64.041
rfemur -31.194 -0.558286 12.6413
rtibia 56.7274
rfoot -24.4336 -9.08085
rtoes -18.4254
lfemur -28.1527 8.83205 -20.4097
ltibia 48.6002
lfoot -17.5349 -8.68558
ltoes -7.37287
1880
root -0.182854 14.9393 -0.841988 5.17536 1.05229 4.59336
lowerback 20.0303 -0.748493 0.728176
upperback -6.01844 -0.664219 0.873937
thorax -18.4729 -0.295361 0.850298
lowerneck -21.5819 1.94508 -2.02182
upperneck 28.9211 3.28332 0.924461
head 13.2827 1.34188 1.28268
rclavicle -1.36043e-014 -8.74653e-015
rhumerus -84.6604 39.7997 -99.3415
rradius 128.228
rwrist -43.3503
rhand 41.3127 9.6785
rfingers 7.12502
rthumb 63.474 0.149567
lclavicle -1.36043e-014 -8.74653e-015
lhumerus -85.917 -40.5624 100.97
lradius 122.367
lwrist 84.2121
lhand 26.447 43.1925
lfingers 7.12502
lthumb 50.4863 64.1561
rfemur -31.3784 -0.655284 12.6094
rtibia 56.8368
rfoot -24.3926 -9.08399
rtoes -18.4163
lfemur -28.3873 8.82473 -20.4626
ltibia 48.7698
lfoot -17.5296 -8.72686
ltoes -7.56423
1881
root -0.177733 14.9346 -0.855152 5.18622 1.12974 4.56451
lowerback 20.1224 -0.72598 0.707458
upperback -5.98431 -0.650282 0.805146
thorax -18.4888 -0.29286 0.777014
lowerneck -20.9447 1.80217 -2.32775
upperneck 28.4152 3.09202 1.13797
head 12.9339 1.26579 1.36467
rclavicle 2.12327e-014 3.18055e-015
rhumerus -84.5756 39.727 -99.399
rradius 128.093
rwrist -43.2678
rhand 40.155 10.2583
rfingers 7.12502
rthumb 62.5236 -0.568099
lclavicle 2.12327e-014 3.18055e-015
lhumerus -85.5733 -40.6909 100.699
lradius 122.214
lwrist 84.139
lhand 26.3712 43.2634
lfingers 7.12502
lthumb 50.417 64.2644
rfemur -31.4894 -0.74572 12.6229
rtibia 56.9163
rfoot -24.3971 -9.08515
rtoes -18.3709
lfemur -28.5634 8.83296 -20.4607
ltibia 48.9251
lfoot -17.4976 -8.83725
ltoes -7.34675
1882
root -0.172291 14.9306 -0.865388 5.18936 1.13468 4.47218
lowerback 20.1244 -0.713647 0.727947
upperback -5.87972 -0.637709 0.752566
thorax -18.3574 -0.295014 0.696958
lowerneck -20.2822 1.65105 -2.76021
upperneck 27.7258 2.88235 1.49431
head 12.5075 1.18957 1.51564
rclavicle 2.68608e-014 -1.59028e-014
rhumerus -84.2727 39.8901 -99.4905
rradius 127.911
rwrist -43.2993
rhand 40.0798 10.3223
rfingers 7.12502
rthumb 62.4613 -0.58513
lclavicle 2.68608e-014 -1.59028e-014
lhumerus -84.9759 -40.82 100.187
lradius 122.104
lwrist 83.9932
lhand 26.3022 43.1917
lfingers 7.12502
lthumb 50.354 64.2266
rfemur -31.5761 -0.770302 12.7062
rtibia 56.9809
rfoot -24.3498 -9.1082
rtoes -18.5799
lfemur -28.7096 8.96227 -20.3941
ltibia 49.0673
lfoot -17.4773 -8.99694
ltoes -7.07981
1883
root -0.163224 14.9275 -0.873371 5.15218 1.11085 4.35736
lowerback 20.1073 -0.674424 0.836309
upperback -5.76167 -0.568927 0.675218
thorax -18.1985 -0.284656 0.517537
lowerneck -19.3333 1.468 -3.28086
upperneck 26.8495 2.60844 1.96235
head 11.9583 1.09281 1.70381
rclavicle -1.59028e-015 9.54166e-015
rhumerus -83.9433 39.9582 -99.5211
rradius 127.785
rwrist -43.4999
rhand 41.0063 10.0118
rfingers 7.12502
rthumb 63.2239 0.130174
lclavicle -1.59028e-015 9.54166e-015
lhumerus -84.3163 -41.0101 99.6705
lradius 121.971
lwrist 83.6993
lhand 26.3461 43.0872
lfingers 7.12502
lthumb 50.3941 64.1005
rfemur -31.5959 -0.769559 12.787
rtibia 57.0373
rfoot -24.3465 -9.06059
rtoes -18.4702
lfemur -28.7722 9.08177 -20.3164
ltibia 49.203
lfoot -17.5617 -9.05482
ltoes -7.35791
1884
root -0.153059 14.9218 -0.882525 5.0691 1.10624 4.39593
lowerback 20.1112 -0.626677 0.840192
upperback -5.62337 -0.53044 0.520401
thorax -18.0269 -0.281859 0.317884
lowerneck -18.1311 1.29184 -3.79483
upperneck 25.7601 2.30834 2.4987
head 11.2929 0.993932 1.90218
rclavicle -1.2424e-015 -7.15625e-015
rhumerus -83.5275 39.8899 -99.5189
rradius 127.6
rwrist -43.4672
rhand 41.353 10.0486
rfingers 7.12502
rthumb 63.5068 0.566627
lclavicle -1.2424e-015 -7.15625e-015
lhumerus -83.6039 -41.2751 99.0689
lradius 121.818
lwrist 83.4583
lhand 26.3374 43.0504
lfingers 7.12502
lthumb 50.3861 64.068
rfemur -31.5966 -0.832034 12.6916
rtibia 57.1212
rfoot -24.3575 -8.96206
rtoes -18.5115
lfemur -28.7836 9.16933 -20.4024
ltibia 49.353
lfoot -17.597 -9.12464
ltoes -7.46219
